# xmcd CD database file
#
# Track frame offsets:
#	150
#	16429
#	32494
#	50185
#	65112
#	83664
#	103871
#	123504
#	142481
#	160181
#	175790
#	194614
#	217475
#	233488
#	252020
#
# Disc length: 3576 seconds
#
# Revision: 2
# Processed by: cddbd v1.5.2PL0 Copyright (c) Steve Scherf et al.
# Submitted via: jetAudio 5
#
DISCID=e20df60f
DTITLE=L´Âme Immortelle - Auf deinen Schwingen
DYEAR=2006
DGENRE=Indie
TTITLE0=Auf deinen Schwingen
TTITLE1=Herzschlag
TTITLE2=Du siehst mich nicht
TTITLE3=Nur du
TTITLE4=Phönix
TTITLE5=Destiny
TTITLE6=Sometimes Love is not enough
TTITLE7=Run away
TTITLE8=Wohin
TTITLE9=In dein Leben
TTITLE10=Last Will
TTITLE11=Der letzte Akt
TTITLE12=Bis ans Ende der Zeit (Bonustrack)
TTITLE13=Dying Day (Bonustrack)
TTITLE14=Dein Herz
EXTD=
EXTT0=
EXTT1=
EXTT2=
EXTT3=
EXTT4=
EXTT5=
EXTT6=
EXTT7=
EXTT8=
EXTT9=
EXTT10=
EXTT11=
EXTT12=
EXTT13=
EXTT14=
PLAYORDER=
